<svg width="47" height="46" viewBox="0 0 47 46" fill="none" xmlns="http://www.w3.org/2000/svg">
<g clip-path="url(#clip0)">
<path d="M43.875 23.5958C43.6859 23.2171 43.6859 22.7828 43.875 22.4042L45.628 18.8945C46.604 16.9403 45.8307 14.6111 43.8675 13.5917L40.3416 11.7607C39.9612 11.5632 39.7004 11.2117 39.626 10.7967L38.9364 6.94884C38.5524 4.80644 36.5276 3.36679 34.3275 3.67145L30.3754 4.2186C29.9488 4.27753 29.527 4.14331 29.2176 3.85033L26.3488 1.13419C24.7515 -0.378232 22.2491 -0.378322 20.6519 1.13419L17.783 3.8506C17.4735 4.14367 17.0517 4.27762 16.6252 4.21887L12.6731 3.67172C10.4723 3.36688 8.44818 4.80671 8.0642 6.94911L7.37462 10.7968C7.30017 11.2119 7.03938 11.5633 6.65907 11.7608L3.13317 13.5919C1.17002 14.6112 0.396722 16.9406 1.3727 18.8948L3.12555 22.4044C3.31465 22.7831 3.31465 23.2174 3.12555 23.596L1.37261 27.1056C0.396631 29.0598 1.16992 31.389 3.13308 32.4084L6.65898 34.2394C7.03938 34.4369 7.30017 34.7884 7.37462 35.2034L8.0642 39.0513C8.41376 41.0016 10.1225 42.3694 12.0863 42.3692C12.2797 42.3692 12.4759 42.3559 12.6732 42.3286L16.6253 41.7814C17.0515 41.7222 17.4736 41.8567 17.7831 42.1497L20.6519 44.8658C21.4507 45.6221 22.4753 46.0002 23.5003 46.0001C24.525 46 25.5503 45.6219 26.3487 44.8658L29.2176 42.1497C29.5271 41.8567 29.949 41.7228 30.3754 41.7814L34.3275 42.3286C36.5286 42.6333 38.5524 41.1936 38.9364 39.0512L39.6261 35.2035C39.7005 34.7884 39.9613 34.437 40.3416 34.2394L43.8675 32.4084C45.8307 31.3891 46.604 29.0597 45.628 27.1055L43.875 23.5958ZM42.597 30.0647L39.0711 31.8957C37.9469 32.4796 37.1759 33.518 36.9561 34.7449L36.2665 38.5927C36.1366 39.3176 35.4519 39.8044 34.7072 39.7015L30.7551 39.1544C29.4947 38.9797 28.2475 39.3767 27.3328 40.2427L24.464 42.9587C23.9237 43.4703 23.077 43.4703 22.5365 42.9587L19.6678 40.2426C18.8947 39.5106 17.884 39.114 16.8289 39.114C16.6356 39.114 16.4407 39.1273 16.2455 39.1543L12.2934 39.7015C11.5493 39.8044 10.8641 39.3175 10.7341 38.5926L10.0444 34.7447C9.82448 33.5178 9.05358 32.4793 7.92935 31.8956L4.40345 30.0646C3.73921 29.7197 3.47759 28.9317 3.80778 28.2705L5.56073 24.7608C6.11958 23.6417 6.11958 22.3582 5.56073 21.2391L3.80778 17.7294C3.47759 17.0682 3.73921 16.2802 4.40345 15.9353L7.92935 14.1043C9.05348 13.5204 9.82448 12.482 10.0443 11.2551L10.7339 7.40731C10.8639 6.68246 11.5485 6.19551 12.2933 6.29847L16.2454 6.84561C17.5053 7.02018 18.7529 6.62334 19.6676 5.75734L22.5364 3.0412C23.0768 2.52963 23.9234 2.52963 24.4639 3.0412L27.3326 5.75734C28.2474 6.62343 29.4948 7.02018 30.7549 6.84561L34.707 6.29847C35.4512 6.19542 36.1364 6.68246 36.2663 7.40731L36.9559 11.2552C37.1758 12.4821 37.9467 13.5206 39.071 14.1043L42.5969 15.9353C43.2611 16.2802 43.5227 17.0682 43.1925 17.7294L41.4396 21.239C40.8807 22.358 40.8807 23.6417 41.4396 24.7607L43.1925 28.2703C43.5228 28.9317 43.2612 29.7198 42.597 30.0647Z" fill="black"/>
<path d="M33.4036 13.3072C32.8744 12.7892 32.0161 12.7892 31.4868 13.3072L13.5967 30.8168C13.0674 31.3348 13.0674 32.1748 13.5967 32.6928C13.8613 32.9518 14.2082 33.0814 14.555 33.0814C14.9018 33.0814 15.2488 32.9519 15.5134 32.6928L33.4035 15.1833C33.933 14.6652 33.933 13.8254 33.4036 13.3072Z" fill="black"/>
<path d="M18.0782 11.0611C15.3379 11.0611 13.1084 13.2432 13.1084 15.9252C13.1084 18.6072 15.3379 20.7892 18.0782 20.7892C20.8185 20.7892 23.0479 18.6072 23.0479 15.9252C23.0479 13.2432 20.8185 11.0611 18.0782 11.0611ZM18.0782 18.136C16.8326 18.136 15.8192 17.1442 15.8192 15.9251C15.8192 14.706 16.8326 13.7142 18.0782 13.7142C19.3237 13.7142 20.3372 14.706 20.3372 15.9251C20.3371 17.1442 19.3237 18.136 18.0782 18.136Z" fill="black"/>
<path d="M28.9214 25.2109C26.1811 25.2109 23.9517 27.3929 23.9517 30.0749C23.9517 32.7569 26.1811 34.939 28.9214 34.939C31.6617 34.939 33.8912 32.7569 33.8912 30.0749C33.8912 27.3929 31.6617 25.2109 28.9214 25.2109ZM28.9214 32.2858C27.6758 32.2858 26.6624 31.294 26.6624 30.0749C26.6624 28.8559 27.6757 27.8641 28.9214 27.8641C30.167 27.8641 31.1803 28.8559 31.1803 30.0749C31.1803 31.294 30.167 32.2858 28.9214 32.2858Z" fill="black"/>
</g>
<defs>
<clipPath id="clip0">
<rect width="47" height="46" fill="white"/>
</clipPath>
</defs>
</svg>
